<svg id="svg" version="1.1" xmlns="http://www.w3.org/2000/svg" xmlns:xlink="http://www.w3.org/1999/xlink" width="400" height="302.76243093922653" viewBox="0, 0, 400,302.76243093922653"><g id="svgg"><path id="path0" d="M289.757 53.409 C 289.661 53.510,288.903 53.720,288.071 53.878 C 286.482 54.180,284.027 55.575,284.027 56.176 C 284.027 56.371,283.755 56.777,283.422 57.078 C 283.089 57.379,282.816 57.793,282.816 57.996 C 282.816 58.200,282.631 58.520,282.404 58.709 C 282.066 58.989,281.559 61.280,281.559 62.528 C 281.559 64.944,282.517 67.409,283.972 68.741 C 284.884 69.576,287.299 70.855,287.962 70.855 C 288.318 70.855,288.846 70.982,289.135 71.137 C 289.424 71.292,291.737 71.462,294.274 71.515 C 297.969 71.593,298.944 71.703,299.174 72.067 C 299.619 72.771,299.567 171.773,299.122 172.218 C 298.859 172.481,298.505 172.454,297.683 172.108 C 295.164 171.048,292.870 170.421,290.907 170.257 C 289.017 170.098,288.786 170.006,288.495 169.295 C 286.776 165.096,284.556 162.448,281.167 160.553 C 279.909 159.849,278.505 159.271,278.047 159.269 C 277.589 159.266,276.397 159.069,275.397 158.832 C 273.708 158.430,273.541 158.439,273.017 158.955 C 272.271 159.688,270.370 158.487,269.109 156.485 C 265.718 151.105,257.446 149.166,250.814 152.197 C 249.950 152.591,249.129 152.914,248.990 152.914 C 248.452 152.914,244.387 157.373,243.744 158.668 C 242.877 160.414,242.768 160.474,240.443 160.480 C 231.476 160.501,224.678 167.949,224.678 177.753 C 224.678 180.144,224.966 180.469,227.081 180.469 C 227.758 180.469,228.312 180.606,228.312 180.772 C 228.312 180.939,227.658 181.075,226.858 181.075 C 224.556 181.075,224.679 180.275,224.674 195.291 C 224.671 202.831,224.548 208.973,224.394 209.215 C 224.111 209.663,223.859 209.583,218.471 207.329 C 217.187 206.792,216.309 206.693,212.690 206.679 L 208.423 206.662 206.028 207.864 C 202.349 209.712,198.587 213.979,197.767 217.235 C 197.323 218.997,196.280 218.823,195.721 216.893 C 195.052 214.583,191.614 210.293,189.199 208.755 C 185.727 206.544,178.339 205.747,175.176 207.243 C 174.673 207.480,173.853 207.774,173.354 207.896 C 172.854 208.017,171.786 208.470,170.981 208.901 C 168.573 210.191,168.646 210.606,168.660 195.770 C 168.667 188.770,168.670 182.690,168.666 182.259 C 168.662 181.704,168.417 181.361,167.827 181.084 L 166.995 180.693 167.827 180.404 C 168.752 180.084,168.775 179.979,168.683 176.533 C 168.518 170.315,165.193 164.766,160.228 162.423 C 158.953 161.821,157.638 161.173,157.305 160.982 C 156.972 160.792,155.350 160.568,153.700 160.484 L 150.701 160.333 149.814 158.668 C 145.952 151.418,137.021 148.671,129.599 152.449 C 126.342 154.107,125.316 155.042,123.627 157.892 C 123.305 158.435,122.951 158.518,120.902 158.530 C 113.657 158.572,108.071 162.024,105.560 168.013 L 104.685 170.098 102.381 170.307 C 101.113 170.421,99.430 170.726,98.641 170.984 C 97.852 171.242,97.000 171.374,96.747 171.277 C 96.340 171.120,96.297 165.682,96.365 122.568 L 96.442 74.035 101.438 73.848 C 106.508 73.659,109.172 73.166,110.214 72.223 C 110.493 71.971,110.851 71.764,111.009 71.764 C 111.655 71.764,113.809 68.750,114.255 67.222 C 114.924 64.929,114.691 62.994,113.439 60.466 C 111.398 56.343,109.775 55.743,100.567 55.702 C 91.636 55.663,87.728 56.845,83.791 60.778 C 81.833 62.734,80.897 64.182,79.138 67.979 C 78.601 69.137,78.573 71.057,78.496 112.178 C 78.451 136.369,78.299 155.282,78.149 155.432 C 78.003 155.578,76.108 155.680,73.939 155.659 C 65.437 155.576,62.127 157.152,60.401 162.106 C 59.291 165.291,60.696 169.773,63.349 171.514 C 66.333 173.472,65.710 173.332,72.218 173.500 L 78.274 173.656 78.425 216.957 C 78.563 256.328,78.622 260.340,79.073 261.166 C 79.346 261.665,79.928 262.866,80.366 263.835 C 81.232 265.748,81.214 265.720,82.836 267.601 C 85.062 270.180,88.908 272.427,92.506 273.249 C 96.863 274.245,110.220 273.718,110.220 272.550 C 110.220 272.443,110.662 272.117,111.204 271.825 C 111.745 271.533,112.420 270.889,112.704 270.394 C 113.284 269.380,114.248 269.218,115.609 269.906 C 116.059 270.133,117.585 270.685,119.001 271.133 C 120.416 271.580,121.983 272.093,122.483 272.273 C 122.983 272.452,124.618 272.772,126.117 272.985 C 133.450 274.023,134.275 274.085,136.412 273.763 C 137.578 273.587,139.826 273.295,141.408 273.113 C 142.990 272.931,144.646 272.588,145.088 272.349 C 145.530 272.110,146.160 271.915,146.488 271.915 C 148.251 271.915,152.192 270.332,156.548 267.874 C 159.643 266.128,162.319 264.202,164.288 262.301 C 164.504 262.093,164.810 261.923,164.967 261.923 C 165.202 261.923,168.604 258.573,170.477 256.498 C 170.727 256.221,172.563 254.175,174.558 251.951 C 176.552 249.728,179.073 246.994,180.160 245.877 C 182.819 243.141,189.953 235.573,192.070 233.242 C 193.525 231.640,195.312 228.555,196.012 226.439 C 196.358 225.392,197.391 225.177,197.595 226.110 C 198.229 229.002,199.956 231.610,204.294 236.228 C 206.071 238.120,208.408 240.621,209.486 241.787 C 210.565 242.952,212.620 245.134,214.051 246.634 C 216.604 249.309,221.873 255.022,222.955 256.286 C 224.139 257.670,226.903 260.423,227.769 261.079 C 228.271 261.460,229.465 262.485,230.421 263.358 C 231.377 264.231,232.486 265.200,232.885 265.512 C 234.360 266.665,241.872 270.292,244.512 271.125 C 246.011 271.598,247.714 272.178,248.297 272.413 C 249.272 272.807,252.205 273.179,257.963 273.639 C 260.977 273.880,268.862 273.063,271.158 272.272 C 271.658 272.100,273.089 271.657,274.338 271.288 C 277.055 270.485,278.737 269.761,280.714 268.545 L 282.185 267.639 283.106 268.320 C 283.613 268.695,284.027 269.103,284.027 269.227 C 284.027 269.351,284.334 269.545,284.709 269.660 C 285.083 269.774,285.615 270.065,285.891 270.306 C 287.492 271.710,298.005 272.142,303.074 271.014 C 309.412 269.602,313.738 265.567,316.394 258.592 L 317.144 256.624 317.315 214.080 L 317.487 171.537 323.089 171.342 C 328.561 171.151,330.053 170.963,330.053 170.462 C 330.053 170.326,330.291 170.139,330.583 170.045 C 334.044 168.936,336.190 162.215,334.244 158.578 C 332.262 154.873,329.693 153.745,322.871 153.580 L 317.355 153.447 317.262 110.864 L 317.168 68.282 316.378 66.222 C 315.943 65.089,315.492 64.067,315.375 63.951 C 315.258 63.835,314.987 63.321,314.773 62.809 C 314.558 62.297,313.957 61.394,313.437 60.801 C 312.916 60.208,312.491 59.647,312.491 59.555 C 312.491 58.269,307.872 55.325,304.012 54.151 C 302.058 53.556,290.207 52.940,289.757 53.409 M139.478 161.013 C 142.420 163.120,142.619 163.833,142.619 172.240 C 142.619 180.744,142.563 180.469,144.317 180.469 C 146.108 180.469,146.019 181.018,144.209 181.134 L 142.771 181.226 142.692 195.053 L 142.613 208.879 143.400 209.814 C 144.350 210.943,145.124 210.998,146.115 210.006 L 146.858 209.263 146.860 192.519 C 146.862 172.778,146.880 172.664,150.189 170.828 C 151.829 169.918,155.021 169.794,155.918 170.606 C 156.207 170.868,156.580 171.083,156.746 171.083 C 157.950 171.083,158.994 173.667,159.191 177.139 C 159.280 178.721,159.479 180.173,159.631 180.367 C 159.802 180.584,159.787 180.793,159.591 180.914 C 159.374 181.048,159.273 188.135,159.273 203.253 L 159.273 225.396 159.932 226.097 C 161.351 227.607,163.815 226.393,163.815 224.183 C 163.815 223.604,164.952 222.256,165.441 222.256 C 165.611 222.256,168.347 220.975,171.520 219.408 C 180.887 214.786,182.185 214.656,185.536 218.007 C 187.312 219.783,187.578 223.861,186.035 225.663 C 185.059 226.802,182.829 229.242,180.586 231.625 C 179.401 232.884,178.107 234.272,177.709 234.710 C 174.194 238.583,172.284 240.676,171.385 241.639 C 170.802 242.263,168.622 244.654,166.540 246.951 C 162.534 251.373,159.987 254.011,158.508 255.271 C 157.104 256.467,154.242 258.592,154.036 258.592 C 153.933 258.592,153.128 259.020,152.246 259.543 C 148.332 261.864,149.029 261.584,142.771 263.350 C 140.256 264.060,139.567 264.119,133.838 264.120 L 127.631 264.120 124.396 263.021 C 122.617 262.417,121.005 261.923,120.814 261.923 C 120.477 261.923,117.998 260.725,114.937 259.082 C 113.459 258.289,112.143 257.356,110.977 256.276 C 110.643 255.968,109.656 255.124,108.781 254.400 C 107.907 253.677,107.192 252.968,107.192 252.824 C 107.192 252.681,106.885 252.238,106.510 251.841 C 103.875 249.046,99.884 242.642,99.278 240.238 C 99.093 239.502,98.822 238.826,98.676 238.735 C 98.530 238.645,98.409 238.205,98.408 237.757 C 98.407 237.308,98.184 236.533,97.913 236.033 C 97.118 234.573,96.859 225.756,96.958 203.611 L 97.048 183.604 97.770 182.550 C 100.621 178.391,106.904 179.206,108.685 183.966 C 109.277 185.550,109.311 186.256,109.311 197.115 C 109.311 210.316,109.471 211.177,111.817 210.588 C 113.415 210.187,113.387 210.508,113.550 190.591 L 113.702 172.097 114.536 170.837 C 116.176 168.360,119.690 167.381,122.424 168.639 C 124.908 169.782,125.696 171.615,125.948 176.836 L 126.117 180.318 128.013 180.408 C 130.361 180.520,130.145 181.324,130.284 171.963 C 130.394 164.539,130.428 164.167,131.086 163.102 C 132.889 160.185,136.921 159.181,139.478 161.013 M260.636 161.105 C 263.357 163.105,263.157 161.079,263.146 186.518 L 263.137 208.964 263.937 209.705 C 264.897 210.596,265.844 210.649,266.810 209.868 L 267.525 209.289 267.609 195.603 C 267.703 180.504,267.776 181.078,265.746 181.070 C 265.059 181.068,264.292 180.934,264.042 180.772 C 263.719 180.563,264.072 180.477,265.269 180.474 C 267.561 180.468,267.676 180.286,267.676 176.688 C 267.676 172.704,268.451 170.502,270.366 169.041 C 273.143 166.923,277.533 168.030,279.182 171.264 L 279.939 172.748 280.091 190.916 C 280.174 200.908,280.353 209.255,280.489 209.465 C 281.166 210.512,282.363 210.741,283.291 210.001 L 284.179 209.293 284.268 197.228 C 284.375 182.765,284.362 182.830,287.644 180.726 C 290.117 179.142,293.586 179.810,295.434 182.226 L 296.291 183.346 296.442 203.936 C 296.600 225.349,296.400 234.066,295.710 235.882 C 295.488 236.465,295.002 237.964,294.628 239.213 C 293.986 241.360,292.003 245.461,291.102 246.504 C 290.875 246.767,290.689 247.087,290.689 247.216 C 290.689 247.444,287.796 251.167,286.193 253.001 C 284.751 254.652,280.524 257.946,278.392 259.082 C 277.245 259.693,276.101 260.345,275.852 260.531 C 274.825 261.294,272.241 262.255,267.827 263.517 C 265.312 264.235,254.162 264.442,252.233 263.805 C 251.650 263.613,249.947 263.090,248.448 262.644 C 245.960 261.904,242.477 260.352,239.364 258.596 C 236.494 256.978,232.337 253.095,227.370 247.393 C 226.140 245.980,224.724 244.403,224.224 243.890 C 223.724 243.376,222.227 241.739,220.897 240.251 C 219.567 238.764,217.773 236.798,216.910 235.882 C 216.047 234.966,215.023 233.866,214.635 233.437 C 214.247 233.009,212.825 231.442,211.475 229.955 C 206.521 224.498,206.510 224.481,206.510 222.144 C 206.510 220.071,206.803 219.285,208.033 218.055 C 211.245 214.842,213.590 215.082,222.650 219.551 C 225.666 221.039,228.307 222.256,228.519 222.256 C 229.057 222.256,229.721 223.409,229.956 224.750 C 230.173 225.989,230.816 226.498,232.153 226.490 C 234.422 226.478,234.368 227.140,234.371 199.396 L 234.374 174.868 235.081 173.350 C 236.754 169.756,240.416 168.843,243.946 171.139 C 246.552 172.835,246.480 172.252,246.480 191.594 L 246.480 208.583 247.264 209.515 C 248.177 210.600,249.116 210.705,250.056 209.829 L 250.719 209.212 250.719 195.355 C 250.719 185.264,250.624 181.404,250.369 181.148 C 250.120 180.900,250.111 180.684,250.339 180.406 C 250.540 180.162,250.700 177.173,250.766 172.445 C 250.870 165.031,250.888 164.847,251.629 163.527 C 253.522 160.149,257.780 159.004,260.636 161.105 M126.167 181.277 C 126.056 181.388,125.965 187.730,125.965 195.372 L 125.965 209.264 126.766 210.007 C 127.790 210.955,128.164 210.940,129.322 209.906 L 130.265 209.063 130.222 195.323 C 130.199 187.765,130.109 181.468,130.023 181.328 C 129.837 181.029,126.460 180.984,126.167 181.277 " stroke="none" fill="#000000" fill-rule="evenodd"></path><path id="path1" d="M0.000 151.400 L 0.000 302.801 200.000 302.801 L 400.000 302.801 400.000 151.400 L 400.000 0.000 200.000 0.000 L 0.000 0.000 0.000 151.400 M247.843 44.563 C 251.274 44.988,251.452 45.086,252.392 47.074 L 253.167 48.712 253.079 57.740 C 252.943 71.575,253.680 70.855,239.667 70.854 C 228.760 70.853,228.816 70.864,227.372 68.540 L 226.646 67.373 226.646 57.532 L 226.646 47.691 227.372 46.524 C 228.694 44.397,228.823 44.368,237.428 44.293 C 241.715 44.255,246.323 44.375,247.843 44.563 M172.402 53.329 C 173.816 53.973,173.651 61.111,172.196 62.194 C 171.106 63.006,166.306 63.044,164.774 62.252 C 163.290 61.484,162.901 54.407,164.288 53.394 C 164.982 52.886,171.320 52.836,172.402 53.329 M304.411 54.003 C 308.058 55.102,310.372 56.678,312.939 59.809 C 314.554 61.779,315.127 62.783,316.483 66.011 L 317.183 67.676 317.264 110.415 L 317.346 153.154 318.123 153.349 C 318.550 153.457,319.672 153.458,320.616 153.353 C 326.905 152.653,331.062 154.114,334.172 158.117 C 335.941 160.395,335.284 166.076,332.995 168.289 C 329.815 171.364,328.732 171.688,321.631 171.688 L 317.346 171.688 317.265 214.488 C 317.207 245.330,317.090 257.407,316.847 257.713 C 316.662 257.947,316.413 258.542,316.295 259.036 C 315.043 264.259,309.916 269.315,304.122 271.039 C 299.383 272.450,288.334 272.120,285.941 270.496 C 285.373 270.111,284.813 269.795,284.695 269.794 C 284.578 269.793,284.017 269.358,283.450 268.827 L 282.419 267.860 279.817 269.240 C 277.422 270.509,276.410 270.891,271.158 272.513 C 265.709 274.197,253.527 274.259,248.600 272.628 C 247.850 272.381,246.760 272.065,246.177 271.928 C 244.366 271.501,241.670 270.461,239.565 269.375 C 234.369 266.696,233.054 265.886,231.157 264.194 C 230.037 263.194,228.836 262.187,228.489 261.954 C 227.572 261.340,222.878 256.558,219.243 252.536 C 217.513 250.621,215.249 248.168,214.213 247.086 C 212.425 245.217,211.359 244.083,204.185 236.418 C 200.538 232.521,198.194 229.223,197.712 227.311 C 197.343 225.846,196.453 225.706,196.013 227.045 C 195.799 227.698,194.316 230.791,194.026 231.188 C 193.905 231.355,193.269 232.104,192.612 232.854 C 191.955 233.603,191.169 234.504,190.864 234.856 C 190.398 235.394,182.810 243.367,179.260 247.048 C 178.677 247.651,177.061 249.440,175.667 251.022 C 171.472 255.783,165.833 261.649,165.026 262.089 C 164.610 262.317,163.793 262.934,163.210 263.460 C 161.629 264.888,159.787 266.345,159.273 266.573 C 159.023 266.684,158.274 267.089,157.608 267.472 C 152.963 270.143,148.834 271.911,147.228 271.917 C 146.941 271.918,146.315 272.123,145.836 272.373 C 145.357 272.623,144.199 272.909,143.262 273.008 C 142.326 273.108,140.417 273.379,139.022 273.612 C 135.725 274.161,131.764 274.149,128.793 273.581 C 127.487 273.331,125.942 273.121,125.360 273.113 C 124.777 273.106,123.755 272.891,123.089 272.635 C 122.422 272.380,121.400 272.057,120.818 271.918 C 120.235 271.779,118.600 271.235,117.184 270.710 C 113.961 269.514,112.642 269.548,112.642 270.827 C 112.642 271.021,112.199 271.439,111.658 271.757 C 111.117 272.075,110.497 272.510,110.282 272.723 C 108.950 274.039,96.195 274.457,91.900 273.325 C 85.955 271.758,81.573 267.764,79.087 261.647 L 78.276 259.652 78.188 216.765 L 78.099 173.879 72.282 173.748 C 66.043 173.607,66.148 173.631,63.262 171.702 C 59.670 169.302,58.689 163.349,61.297 159.779 C 63.812 156.335,65.031 155.875,72.218 155.660 L 77.971 155.488 78.123 112.491 L 78.274 69.493 78.961 67.979 C 80.145 65.368,81.219 63.472,82.073 62.482 C 82.527 61.957,82.947 61.412,83.008 61.271 C 83.655 59.772,88.907 56.824,92.428 55.983 C 95.620 55.220,105.260 55.163,108.095 55.889 C 114.171 57.446,116.819 64.624,113.187 69.691 C 110.831 72.977,109.160 73.599,101.993 73.855 C 99.216 73.954,96.832 74.148,96.694 74.287 C 96.402 74.580,96.162 167.115,96.447 169.493 C 96.663 171.296,97.089 171.477,99.121 170.628 C 99.718 170.379,101.018 170.174,102.009 170.174 C 103.978 170.174,104.769 169.978,104.769 169.490 C 104.769 167.611,109.046 162.000,111.372 160.828 C 112.154 160.434,112.998 159.939,113.248 159.728 C 113.967 159.119,118.637 158.284,121.052 158.333 C 122.905 158.370,123.287 158.292,123.456 157.841 C 125.004 153.735,133.095 149.633,137.990 150.473 C 143.345 151.393,147.959 154.488,149.809 158.402 L 150.643 160.167 153.172 160.174 C 155.384 160.181,156.005 160.314,158.146 161.241 C 159.491 161.824,160.702 162.301,160.839 162.301 C 161.453 162.301,163.512 163.389,163.512 163.714 C 163.512 163.912,163.683 164.258,163.891 164.482 C 167.304 168.158,168.963 172.341,168.963 177.275 C 168.963 179.988,168.914 180.236,168.345 180.385 L 167.727 180.546 168.345 180.979 C 168.951 181.404,168.963 181.668,168.968 194.945 C 168.970 202.388,169.090 208.665,169.234 208.892 C 169.500 209.311,171.508 208.906,171.744 208.386 C 172.049 207.714,178.550 206.101,180.772 206.145 C 187.100 206.272,194.464 211.419,195.878 216.704 C 196.259 218.129,197.353 218.201,197.723 216.826 C 200.249 207.445,212.205 203.565,222.495 208.786 C 224.457 209.782,224.375 210.362,224.375 195.313 C 224.375 182.148,224.396 181.657,224.968 181.167 C 225.555 180.664,225.555 180.655,224.926 180.215 C 224.333 179.800,224.303 179.580,224.474 176.973 C 225.122 167.111,230.933 160.880,240.045 160.276 L 242.846 160.090 243.576 158.546 C 248.037 149.117,264.275 147.779,269.341 156.423 C 270.149 157.802,272.309 159.255,272.674 158.665 C 273.058 158.044,279.045 158.907,280.091 159.735 C 280.341 159.932,281.202 160.415,282.006 160.808 C 283.574 161.575,287.357 165.392,287.360 166.211 C 287.361 166.476,287.633 167.101,287.964 167.600 C 288.295 168.100,288.566 168.751,288.567 169.046 C 288.570 169.736,289.735 170.174,291.564 170.174 C 292.437 170.174,294.190 170.592,296.009 171.234 C 297.662 171.817,299.048 172.294,299.091 172.294 C 299.190 172.294,299.191 72.083,299.092 72.013 C 299.050 71.984,296.836 71.867,294.171 71.754 C 288.122 71.495,283.627 69.942,282.894 67.855 C 282.800 67.590,282.536 67.154,282.307 66.885 C 282.077 66.617,281.769 65.663,281.623 64.766 C 281.476 63.868,281.318 62.998,281.273 62.831 C 280.895 61.445,283.734 55.110,284.734 55.110 C 284.902 55.110,285.286 54.886,285.588 54.613 C 287.116 53.230,300.418 52.799,304.411 54.003 M148.766 68.842 C 149.305 69.068,150.119 69.740,150.573 70.336 L 151.400 71.421 151.400 81.298 C 151.400 95.902,152.321 94.939,138.380 94.904 C 124.022 94.868,124.872 95.826,124.993 79.812 L 125.057 71.357 126.400 70.070 C 127.139 69.362,128.059 68.723,128.444 68.649 C 130.369 68.282,147.821 68.448,148.766 68.842 M203.323 78.597 C 205.357 80.791,204.638 91.864,202.422 92.480 C 201.590 92.712,191.839 92.702,191.232 92.469 C 189.118 91.658,189.072 78.727,191.181 78.282 C 191.535 78.207,192.097 78.089,192.430 78.018 C 195.125 77.448,202.628 77.847,203.323 78.597 M243.557 87.189 C 246.599 87.894,247.634 93.604,245.194 96.215 C 244.403 97.062,238.306 97.255,237.227 96.467 C 236.501 95.937,236.174 89.906,236.790 88.419 C 237.335 87.102,240.615 86.506,243.557 87.189 M247.897 106.757 C 249.801 108.151,249.952 108.925,250.065 117.941 C 250.200 128.751,250.103 129.598,248.533 131.301 L 247.311 132.627 237.100 132.627 L 226.889 132.627 225.646 131.727 C 223.659 130.287,223.467 129.212,223.467 119.502 C 223.467 105.564,223.020 105.989,237.601 106.076 C 246.616 106.129,247.081 106.160,247.897 106.757 M135.755 107.038 C 137.158 107.625,137.235 108.065,137.113 114.869 C 136.988 121.924,137.539 121.423,129.905 121.423 C 125.726 121.423,124.140 121.323,123.912 121.045 C 122.070 118.797,122.460 107.641,124.406 106.928 C 125.771 106.428,134.497 106.513,135.755 107.038 M204.633 109.416 L 205.450 110.234 205.450 115.804 C 205.450 123.273,205.189 123.543,197.952 123.543 C 191.080 123.543,190.320 122.711,190.516 115.402 C 190.702 108.474,190.809 108.385,198.880 108.517 C 203.791 108.598,203.819 108.602,204.633 109.416 M172.076 113.059 C 172.612 113.288,173.446 113.896,173.928 114.409 L 174.806 115.343 174.797 125.637 C 174.784 140.156,175.805 139.119,161.528 139.112 C 147.791 139.106,148.284 139.577,148.307 126.479 C 148.332 112.010,147.722 112.643,161.630 112.642 C 169.000 112.642,171.318 112.734,172.076 113.059 M271.227 132.142 L 272.308 133.322 272.111 138.652 L 271.913 143.982 270.988 144.776 C 269.048 146.441,259.370 146.435,257.861 144.767 C 256.918 143.726,256.411 136.242,257.110 133.687 C 257.818 131.097,258.642 130.813,265.201 130.898 L 270.145 130.961 271.227 132.142 M215.397 135.637 C 217.020 136.255,217.268 143.512,215.705 144.655 C 214.660 145.419,208.732 145.172,207.890 144.329 C 206.443 142.883,206.476 137.111,207.937 135.961 C 208.796 135.285,213.889 135.064,215.397 135.637 M171.573 154.533 C 173.085 156.291,172.444 162.856,170.716 163.318 C 169.287 163.701,164.685 163.522,163.678 163.045 C 162.224 162.355,161.863 155.900,163.190 154.301 C 164.159 153.134,170.521 153.310,171.573 154.533 M208.313 155.116 C 208.722 155.323,209.505 156.081,210.054 156.801 L 211.052 158.109 211.046 168.002 L 211.041 177.896 210.142 179.327 C 209.052 181.062,208.547 181.232,204.542 181.208 C 202.877 181.198,199.947 181.179,198.032 181.165 C 196.117 181.151,193.051 181.155,191.219 181.174 C 187.177 181.214,186.455 180.923,185.348 178.804 L 184.557 177.290 184.557 167.903 C 184.557 153.975,183.760 154.762,197.880 154.749 C 205.013 154.743,207.766 154.839,208.313 155.116 M134.914 160.386 C 131.117 161.453,130.674 162.636,130.568 171.977 C 130.519 176.383,130.356 180.135,130.207 180.314 C 130.047 180.507,130.051 180.823,130.217 181.085 C 130.379 181.341,130.500 187.339,130.503 195.226 L 130.507 208.923 129.674 209.813 C 128.505 211.062,127.804 211.183,126.722 210.320 L 125.814 209.596 125.725 195.563 L 125.637 181.529 126.289 180.999 C 126.797 180.586,126.835 180.469,126.459 180.469 C 125.844 180.469,125.698 179.775,125.563 176.230 C 125.384 171.503,124.797 170.067,122.586 168.939 C 119.845 167.540,116.721 168.231,114.881 170.644 L 114.005 171.792 113.853 190.287 C 113.692 209.959,113.628 210.749,112.205 210.749 C 111.973 210.749,111.585 210.826,111.342 210.919 C 111.099 211.012,110.530 210.770,110.078 210.381 L 109.256 209.673 109.293 198.241 C 109.337 184.856,108.952 182.444,106.586 181.275 C 106.336 181.152,105.791 180.854,105.375 180.613 C 103.347 179.440,99.690 180.356,98.045 182.449 L 97.350 183.332 97.350 208.926 C 97.350 232.730,97.388 234.587,97.880 235.488 C 98.172 236.021,98.411 236.703,98.412 237.002 C 98.413 237.302,98.618 237.938,98.866 238.415 C 99.115 238.892,99.319 239.509,99.319 239.787 C 99.319 240.065,99.791 241.174,100.367 242.251 C 100.944 243.328,101.550 244.481,101.713 244.815 C 103.867 249.198,110.446 256.354,114.252 258.454 C 117.582 260.291,120.502 261.666,121.877 262.045 C 122.710 262.275,124.413 262.781,125.662 263.170 C 130.191 264.581,140.770 264.148,145.426 262.361 C 146.054 262.120,146.819 261.923,147.126 261.923 C 150.133 261.923,159.054 255.072,165.481 247.828 C 166.646 246.514,168.695 244.277,170.034 242.856 C 171.372 241.435,172.871 239.805,173.365 239.233 C 174.549 237.862,177.323 234.839,180.325 231.650 C 186.707 224.871,186.824 224.698,186.827 222.150 C 186.831 217.690,181.982 214.516,178.129 216.457 C 177.224 216.913,170.785 220.005,167.903 221.367 C 164.629 222.915,163.815 223.585,163.815 224.731 C 163.815 227.067,160.745 227.796,159.421 225.775 C 159.047 225.204,158.855 184.374,159.209 180.621 C 159.338 179.254,158.691 174.025,158.273 173.051 C 156.582 169.113,150.029 169.373,147.872 173.463 L 147.176 174.784 147.093 192.130 C 147.000 211.587,147.101 210.749,144.843 210.749 C 142.474 210.749,142.619 212.252,142.625 187.779 C 142.631 166.400,142.620 165.992,141.996 164.388 C 140.867 161.485,137.592 159.634,134.914 160.386 M255.497 160.432 C 251.893 161.324,251.022 163.774,251.022 173.025 C 251.022 177.939,250.917 180.151,250.671 180.396 C 250.406 180.661,250.408 180.852,250.680 181.180 C 250.949 181.503,251.018 185.143,250.955 195.593 L 250.871 209.573 250.114 210.155 C 249.140 210.902,248.334 210.886,247.388 210.100 L 246.631 209.470 246.480 192.018 L 246.329 174.565 245.588 173.271 C 243.105 168.936,237.339 169.058,235.188 173.490 L 234.519 174.868 234.368 200.390 C 234.203 228.106,234.331 226.229,232.584 226.693 C 231.440 226.997,230.324 226.446,230.024 225.430 C 229.454 223.505,228.926 222.603,228.253 222.404 C 227.869 222.290,225.102 220.986,222.104 219.507 C 216.026 216.507,213.444 215.710,211.492 216.232 C 206.561 217.553,205.091 222.829,208.630 226.506 C 208.880 226.766,210.038 228.049,211.204 229.357 C 212.369 230.665,214.496 232.975,215.929 234.490 C 217.363 236.005,219.612 238.471,220.928 239.970 C 222.244 241.469,223.796 243.186,224.378 243.785 C 224.959 244.385,226.253 245.808,227.252 246.947 C 228.251 248.086,229.750 249.766,230.583 250.680 C 231.416 251.593,232.383 252.655,232.733 253.039 C 238.595 259.478,249.586 264.015,259.349 264.026 C 266.515 264.034,271.153 262.892,276.699 259.755 C 277.482 259.312,278.570 258.716,279.116 258.429 C 283.161 256.309,288.408 250.717,291.749 244.966 C 293.502 241.948,293.915 240.934,295.576 235.579 L 296.281 233.308 296.286 208.630 L 296.291 183.952 295.599 182.838 C 293.607 179.636,289.549 179.138,286.703 181.748 C 284.370 183.887,284.330 184.157,284.330 197.761 L 284.330 209.494 283.363 210.251 C 282.485 210.938,282.323 210.970,281.600 210.596 C 279.865 209.698,279.952 210.659,279.788 190.643 L 279.637 172.142 278.832 170.978 C 277.482 169.024,276.007 168.206,273.834 168.206 C 269.828 168.206,267.743 171.211,267.699 177.045 C 267.686 178.845,267.544 180.213,267.358 180.327 C 267.138 180.463,267.142 180.645,267.370 180.919 C 267.596 181.192,267.695 185.690,267.688 195.351 L 267.678 209.387 266.844 210.067 C 265.734 210.972,264.930 210.926,263.948 209.900 L 263.134 209.051 263.136 187.266 C 263.138 166.626,263.061 164.468,262.264 162.979 C 261.242 161.069,257.943 159.827,255.497 160.432 " stroke="none" fill="#36454f" fill-rule="evenodd"></path><path id="path2" d="M228.917 44.859 C 228.466 45.133,227.771 45.883,227.372 46.524 L 226.646 47.691 226.646 57.532 L 226.646 67.373 227.372 68.540 C 228.816 70.864,228.760 70.853,239.667 70.854 C 253.680 70.855,252.943 71.575,253.079 57.740 L 253.167 48.712 252.392 47.074 C 251.966 46.173,251.381 45.315,251.093 45.168 C 249.074 44.138,230.528 43.880,228.917 44.859 M164.288 53.394 C 162.901 54.407,163.290 61.484,164.774 62.252 C 166.306 63.044,171.106 63.006,172.196 62.194 C 173.651 61.111,173.816 53.973,172.402 53.329 C 171.320 52.836,164.982 52.886,164.288 53.394 M300.101 53.404 C 300.170 53.465,300.893 53.587,301.706 53.674 C 302.611 53.772,303.022 53.730,302.766 53.568 C 302.373 53.319,299.827 53.163,300.101 53.404 M94.701 55.626 C 95.076 55.698,95.689 55.698,96.064 55.626 C 96.438 55.554,96.132 55.495,95.382 55.495 C 94.633 55.495,94.326 55.554,94.701 55.626 M99.863 55.638 C 101.245 55.694,103.425 55.694,104.708 55.637 C 105.991 55.581,104.860 55.535,102.195 55.535 C 99.531 55.536,98.481 55.582,99.863 55.638 M308.857 56.102 C 308.857 56.160,309.300 56.531,309.841 56.928 C 310.450 57.373,310.661 57.446,310.396 57.119 C 309.993 56.623,308.857 55.872,308.857 56.102 M86.826 58.112 C 85.615 58.888,85.392 59.202,86.450 58.642 C 87.718 57.969,88.320 57.538,87.964 57.559 C 87.797 57.569,87.285 57.817,86.826 58.112 M312.491 59.601 C 312.491 59.776,312.636 60.009,312.813 60.118 C 312.991 60.228,313.536 60.870,314.025 61.544 C 314.513 62.219,314.913 62.646,314.913 62.493 C 314.913 62.340,314.368 61.555,313.702 60.749 C 313.036 59.943,312.491 59.426,312.491 59.601 M113.441 60.409 C 114.141 61.604,114.156 61.622,114.156 61.250 C 114.156 61.074,113.875 60.608,113.532 60.215 L 112.909 59.500 113.441 60.409 M281.233 62.003 C 281.156 62.297,281.191 62.808,281.312 63.139 C 281.470 63.575,281.532 63.428,281.537 62.604 C 281.545 61.364,281.449 61.175,281.233 62.003 M114.832 64.497 C 114.832 65.079,114.894 65.318,114.970 65.026 C 115.046 64.735,115.046 64.258,114.970 63.967 C 114.894 63.675,114.832 63.914,114.832 64.497 M281.675 64.799 C 281.675 65.382,281.737 65.621,281.814 65.329 C 281.890 65.038,281.890 64.561,281.814 64.269 C 281.737 63.978,281.675 64.217,281.675 64.799 M128.444 68.649 C 128.059 68.723,127.139 69.362,126.400 70.070 L 125.057 71.357 124.993 79.812 C 124.872 95.826,124.022 94.868,138.380 94.904 C 152.321 94.939,151.400 95.902,151.400 81.298 L 151.400 71.421 150.573 70.336 C 149.157 68.479,148.827 68.428,138.465 68.474 C 133.339 68.497,128.829 68.576,128.444 68.649 M317.109 69.796 C 317.112 70.462,317.174 70.699,317.247 70.322 C 317.319 69.945,317.316 69.400,317.241 69.111 C 317.165 68.821,317.106 69.129,317.109 69.796 M288.831 71.293 C 289.514 71.609,290.612 71.747,292.162 71.712 L 294.474 71.659 291.900 71.454 C 290.484 71.340,288.986 71.152,288.569 71.035 C 288.129 70.911,288.239 71.019,288.831 71.293 M295.463 71.680 C 296.008 71.748,296.825 71.746,297.280 71.677 C 297.735 71.608,297.290 71.553,296.291 71.555 C 295.291 71.557,294.919 71.613,295.463 71.680 M299.315 122.180 C 299.315 149.659,299.351 160.856,299.394 147.062 C 299.438 133.267,299.438 110.784,299.394 97.099 C 299.351 83.415,299.315 94.701,299.315 122.180 M78.123 114.368 C 78.039 137.051,78.074 155.507,78.199 155.381 C 78.325 155.256,78.393 136.697,78.351 114.140 L 78.274 73.126 78.123 114.368 M96.404 74.328 C 96.310 74.572,96.304 74.947,96.390 75.160 C 96.475 75.374,96.556 75.252,96.570 74.890 C 96.583 74.527,96.832 74.168,97.123 74.092 C 97.620 73.962,97.619 73.951,97.114 73.919 C 96.817 73.899,96.498 74.083,96.404 74.328 M192.430 78.018 C 192.097 78.089,191.535 78.207,191.181 78.282 C 189.072 78.727,189.118 91.658,191.232 92.469 C 191.839 92.702,201.590 92.712,202.422 92.480 C 204.638 91.864,205.357 80.791,203.323 78.597 C 202.628 77.847,195.125 77.448,192.430 78.018 M238.256 87.262 C 236.688 87.679,236.410 88.549,236.536 92.659 C 236.667 96.951,236.607 96.896,241.186 96.896 C 245.093 96.896,245.554 96.638,246.191 94.097 C 247.571 88.588,244.195 85.680,238.256 87.262 M227.152 106.270 C 224.016 107.047,223.467 109.017,223.467 119.502 C 223.467 129.212,223.659 130.287,225.646 131.727 L 226.889 132.627 237.100 132.627 L 247.311 132.627 248.533 131.301 C 250.103 129.598,250.200 128.751,250.065 117.941 C 249.908 105.464,250.632 106.153,237.601 106.076 C 232.409 106.045,227.707 106.132,227.152 106.270 M124.406 106.928 C 122.460 107.641,122.070 118.797,123.912 121.045 C 124.140 121.323,125.726 121.423,129.905 121.423 C 137.539 121.423,136.988 121.924,137.113 114.869 C 137.235 108.065,137.158 107.625,135.755 107.038 C 134.497 106.513,125.771 106.428,124.406 106.928 M193.187 108.647 C 190.966 109.263,190.660 110.036,190.516 115.402 C 190.320 122.711,191.080 123.543,197.952 123.543 C 205.189 123.543,205.450 123.273,205.450 115.804 L 205.450 110.234 204.633 109.416 C 203.792 108.575,195.463 108.015,193.187 108.647 M151.104 113.172 C 148.586 114.437,148.325 115.679,148.307 126.479 C 148.284 139.577,147.791 139.106,161.528 139.112 C 175.805 139.119,174.784 140.156,174.797 125.637 L 174.806 115.343 173.928 114.409 C 172.311 112.689,171.983 112.642,161.630 112.642 C 153.216 112.643,152.040 112.702,151.104 113.172 M259.324 131.120 C 258.120 131.490,257.521 132.184,257.110 133.687 C 256.411 136.242,256.918 143.726,257.861 144.767 C 259.370 146.435,269.048 146.441,270.988 144.776 L 271.913 143.982 272.111 138.652 L 272.308 133.322 271.227 132.142 L 270.145 130.961 265.201 130.898 C 262.482 130.863,259.838 130.963,259.324 131.120 M207.937 135.961 C 206.476 137.111,206.443 142.883,207.890 144.329 C 208.732 145.172,214.660 145.419,215.705 144.655 C 216.681 143.941,217.066 138.827,216.321 136.470 C 215.914 135.183,209.427 134.789,207.937 135.961 M133.535 150.795 C 132.912 150.995,132.885 151.042,133.384 151.063 C 133.717 151.077,134.194 150.956,134.444 150.795 C 134.974 150.452,134.606 150.452,133.535 150.795 M138.834 150.795 C 139.167 150.938,139.644 151.055,139.894 151.055 C 140.180 151.055,140.124 150.959,139.743 150.795 C 139.410 150.652,138.933 150.535,138.683 150.535 C 138.397 150.535,138.452 150.631,138.834 150.795 M253.596 150.955 C 252.930 151.174,252.589 151.362,252.839 151.373 C 253.089 151.383,253.906 151.198,254.656 150.962 C 255.405 150.726,255.746 150.538,255.413 150.544 C 255.079 150.550,254.262 150.735,253.596 150.955 M260.257 150.953 C 262.166 151.483,262.703 151.480,261.317 150.946 C 260.734 150.722,259.917 150.537,259.500 150.536 C 259.062 150.534,259.381 150.710,260.257 150.953 M142.468 152.006 C 142.967 152.337,143.512 152.608,143.679 152.609 C 143.846 152.609,143.536 152.337,142.990 152.005 C 141.705 151.221,141.284 151.222,142.468 152.006 M265.627 153.201 C 267.145 154.234,268.392 155.391,269.268 156.582 C 269.612 157.049,269.580 156.912,269.177 156.194 C 268.579 155.128,265.830 152.792,264.725 152.410 C 264.433 152.309,264.839 152.665,265.627 153.201 M246.183 155.042 C 245.104 156.183,244.166 157.296,244.098 157.514 C 244.030 157.732,244.027 157.839,244.092 157.751 C 244.156 157.663,245.227 156.539,246.472 155.253 C 247.717 153.967,248.603 152.926,248.441 152.941 C 248.278 152.955,247.262 153.901,246.183 155.042 M321.189 153.436 C 321.727 153.503,322.681 153.504,323.309 153.438 C 323.937 153.373,323.497 153.318,322.332 153.317 C 321.166 153.315,320.652 153.369,321.189 153.436 M147.324 155.346 C 148.317 156.434,149.191 157.280,149.267 157.228 C 149.342 157.175,148.530 156.285,147.461 155.250 L 145.519 153.369 147.324 155.346 M164.216 153.715 C 162.023 154.195,161.571 162.045,163.678 163.045 C 164.685 163.522,169.287 163.701,170.716 163.318 C 172.444 162.856,173.085 156.291,171.573 154.533 C 170.853 153.696,166.507 153.212,164.216 153.715 M328.867 153.937 C 329.177 154.217,331.567 155.333,331.567 155.198 C 331.567 155.026,329.282 153.823,328.955 153.823 C 328.837 153.823,328.798 153.874,328.867 153.937 M187.059 155.356 C 184.678 156.613,184.557 157.219,184.557 167.903 L 184.557 177.290 185.348 178.804 C 186.455 180.923,187.177 181.214,191.219 181.174 C 193.051 181.155,196.117 181.151,198.032 181.165 C 209.568 181.248,208.869 181.354,210.142 179.327 L 211.041 177.896 211.046 168.002 L 211.052 158.109 210.054 156.801 C 208.455 154.704,208.664 154.739,197.880 154.749 C 188.827 154.757,188.116 154.797,187.059 155.356 M124.147 156.624 C 123.702 157.233,123.629 157.444,123.956 157.179 C 124.452 156.775,125.203 155.640,124.973 155.640 C 124.915 155.640,124.544 156.083,124.147 156.624 M331.870 155.734 C 331.870 155.787,332.313 156.229,332.854 156.719 L 333.838 157.608 332.949 156.624 C 332.120 155.706,331.870 155.500,331.870 155.734 M63.403 157.483 C 61.988 158.606,61.637 158.988,62.680 158.268 C 63.096 157.980,63.846 157.476,64.345 157.148 C 64.845 156.819,65.102 156.550,64.917 156.549 C 64.731 156.549,64.050 156.969,63.403 157.483 M269.796 157.608 C 269.796 158.322,272.529 159.463,272.999 158.944 C 273.287 158.626,273.374 158.365,273.191 158.365 C 273.009 158.365,272.772 158.506,272.665 158.679 C 272.542 158.879,271.979 158.720,271.133 158.247 C 270.397 157.835,269.796 157.548,269.796 157.608 M122.332 158.365 L 121.272 158.588 122.238 158.628 C 122.769 158.650,123.288 158.531,123.391 158.365 C 123.494 158.198,123.536 158.080,123.485 158.102 C 123.433 158.124,122.914 158.242,122.332 158.365 M117.184 158.668 C 116.575 158.863,116.546 158.912,117.033 158.919 C 117.366 158.924,117.911 158.811,118.244 158.668 C 119.015 158.336,118.219 158.336,117.184 158.668 M275.397 158.826 C 276.230 159.040,277.252 159.217,277.668 159.218 C 278.085 159.220,277.676 159.035,276.760 158.806 C 275.844 158.578,274.822 158.401,274.489 158.414 C 274.156 158.426,274.565 158.612,275.397 158.826 M133.535 160.830 L 132.778 161.465 133.548 161.009 C 133.971 160.758,134.584 160.485,134.910 160.403 C 135.489 160.256,135.488 160.251,134.898 160.224 C 134.565 160.208,133.952 160.481,133.535 160.830 M152.091 160.405 C 152.887 160.467,154.113 160.466,154.816 160.403 C 155.519 160.339,154.868 160.288,153.369 160.289 C 151.870 160.290,151.295 160.342,152.091 160.405 M239.743 160.401 C 240.284 160.468,241.170 160.468,241.711 160.401 C 242.252 160.334,241.809 160.279,240.727 160.279 C 239.644 160.279,239.201 160.334,239.743 160.401 M138.683 160.565 C 138.683 160.631,139.262 161.146,139.970 161.709 C 140.678 162.271,141.064 162.492,140.829 162.199 C 140.387 161.648,138.683 160.351,138.683 160.565 M235.882 160.939 C 234.468 161.483,235.079 161.494,236.790 160.954 C 237.540 160.718,237.880 160.526,237.547 160.528 C 237.214 160.529,236.465 160.714,235.882 160.939 M253.105 161.719 L 251.779 162.953 253.217 161.806 C 254.008 161.175,254.656 160.620,254.656 160.572 C 254.656 160.338,254.325 160.583,253.105 161.719 M110.295 161.390 C 109.754 161.720,109.311 162.055,109.311 162.135 C 109.311 162.215,109.788 161.999,110.371 161.656 C 110.954 161.312,111.431 160.976,111.431 160.909 C 111.431 160.715,111.335 160.756,110.295 161.390 M283.477 162.035 C 284.090 162.598,285.214 163.778,285.975 164.658 C 286.736 165.538,287.358 166.142,287.358 166.000 C 287.358 165.607,283.696 161.700,282.985 161.334 C 282.642 161.157,282.863 161.473,283.477 162.035 M232.530 162.294 C 231.935 162.609,231.257 163.096,231.024 163.377 C 230.753 163.703,230.995 163.628,231.689 163.171 C 232.288 162.776,233.034 162.290,233.346 162.092 C 234.220 161.536,233.736 161.656,232.530 162.294 M161.712 163.157 C 162.453 163.627,163.501 164.517,164.042 165.135 C 164.584 165.753,165.026 166.152,165.026 166.021 C 165.026 165.890,164.685 165.388,164.269 164.904 C 163.853 164.420,163.512 163.873,163.512 163.688 C 163.512 163.352,161.402 162.301,160.726 162.301 C 160.528 162.301,160.972 162.686,161.712 163.157 M108.084 163.740 L 107.040 164.875 108.176 163.832 C 109.233 162.860,109.450 162.604,109.219 162.604 C 109.169 162.604,108.658 163.115,108.084 163.740 M262.387 163.158 C 262.501 163.379,262.703 163.924,262.838 164.369 C 263.034 165.018,263.087 165.055,263.108 164.554 C 263.122 164.212,262.919 163.667,262.657 163.343 C 262.395 163.020,262.274 162.936,262.387 163.158 M251.374 163.980 C 251.180 164.405,251.028 164.984,251.035 165.268 C 251.043 165.551,251.241 165.244,251.476 164.584 C 251.964 163.213,251.899 162.827,251.374 163.980 M59.728 164.572 C 59.732 165.238,59.794 165.475,59.866 165.099 C 59.938 164.722,59.936 164.177,59.860 163.887 C 59.784 163.598,59.725 163.906,59.728 164.572 M141.956 164.269 C 142.109 164.603,142.310 165.079,142.403 165.329 C 142.548 165.722,142.575 165.719,142.595 165.311 C 142.608 165.052,142.407 164.575,142.148 164.252 C 141.685 163.673,141.682 163.674,141.956 164.269 M228.008 166.616 C 227.562 167.225,227.489 167.437,227.816 167.171 C 228.313 166.768,229.064 165.632,228.834 165.632 C 228.776 165.632,228.404 166.075,228.008 166.616 M333.878 166.919 L 333.333 167.903 333.957 167.146 C 334.511 166.475,334.757 165.935,334.509 165.935 C 334.462 165.935,334.178 166.378,333.878 166.919 M130.291 167.903 C 130.293 168.736,130.352 169.041,130.422 168.580 C 130.491 168.120,130.489 167.439,130.418 167.066 C 130.346 166.694,130.289 167.070,130.291 167.903 M250.789 173.217 C 250.741 177.900,250.609 180.156,250.369 180.396 C 250.105 180.660,250.104 180.850,250.366 181.165 C 250.613 181.463,250.737 185.544,250.795 195.334 L 250.877 209.084 250.949 195.291 C 251.003 185.163,250.929 181.406,250.671 181.148 C 250.406 180.883,250.407 180.694,250.677 180.368 C 250.933 180.060,251.009 178.030,250.946 173.164 L 250.858 166.389 250.789 173.217 M60.576 168.357 C 60.579 168.607,60.930 169.220,61.355 169.720 C 62.124 170.624,62.087 170.518,60.943 168.548 C 60.699 168.126,60.571 168.060,60.576 168.357 M270.462 168.953 C 269.780 169.448,269.078 170.120,268.903 170.448 C 268.342 171.495,268.562 171.508,269.266 170.469 C 269.640 169.915,270.548 169.145,271.282 168.758 C 272.016 168.371,272.411 168.055,272.160 168.055 C 271.909 168.055,271.145 168.459,270.462 168.953 M226.101 169.549 C 225.818 170.027,225.587 170.600,225.587 170.822 C 225.587 171.044,225.867 170.701,226.210 170.061 C 226.942 168.697,226.852 168.277,226.101 169.549 M166.843 169.150 C 166.843 169.316,167.043 169.717,167.288 170.041 C 167.532 170.364,167.732 170.492,167.732 170.326 C 167.732 170.159,167.532 169.758,167.288 169.435 C 167.043 169.112,166.843 168.983,166.843 169.150 M277.466 169.376 C 277.771 169.622,278.221 170.072,278.467 170.377 C 278.882 170.892,278.890 170.884,278.587 170.257 C 278.407 169.886,277.957 169.435,277.586 169.256 C 276.959 168.952,276.950 168.961,277.466 169.376 M96.413 170.477 C 96.435 171.060,96.616 171.245,97.199 171.284 C 97.830 171.325,97.846 171.309,97.293 171.189 C 96.915 171.107,96.577 170.761,96.507 170.383 C 96.406 169.840,96.389 169.857,96.413 170.477 M130.200 175.019 L 130.053 180.318 128.358 180.469 C 125.443 180.730,125.653 179.562,125.733 195.117 L 125.805 208.781 125.961 195.004 L 126.117 181.226 128.085 181.226 L 130.053 181.226 130.210 193.036 L 130.366 204.845 130.432 193.187 C 130.470 186.418,130.380 181.343,130.217 181.085 C 130.043 180.809,130.047 180.507,130.229 180.288 C 130.400 180.082,130.486 177.812,130.435 174.827 L 130.348 169.720 130.200 175.019 M330.296 170.277 C 330.073 170.500,329.689 170.762,329.442 170.859 C 329.065 171.006,329.071 171.039,329.476 171.059 C 329.742 171.072,330.206 170.810,330.507 170.477 C 331.115 169.805,330.937 169.636,330.296 170.277 M100.458 170.388 C 100.834 170.461,101.379 170.458,101.669 170.382 C 101.958 170.306,101.650 170.247,100.984 170.250 C 100.318 170.254,100.081 170.316,100.458 170.388 M236.639 171.267 L 235.428 172.351 236.715 171.389 C 237.822 170.560,238.222 170.161,237.926 170.179 C 237.884 170.181,237.305 170.671,236.639 171.267 M167.794 171.083 C 167.794 171.332,167.911 171.809,168.055 172.142 C 168.219 172.524,168.315 172.580,168.315 172.294 C 168.315 172.044,168.198 171.567,168.055 171.234 C 167.890 170.852,167.794 170.796,167.794 171.083 M62.680 171.166 C 62.680 171.224,63.123 171.596,63.664 171.992 C 64.273 172.438,64.484 172.511,64.219 172.184 C 63.815 171.687,62.680 170.936,62.680 171.166 M148.652 171.915 L 147.918 172.748 148.827 171.991 C 149.326 171.575,149.792 171.200,149.861 171.158 C 149.931 171.117,149.852 171.083,149.687 171.083 C 149.522 171.083,149.056 171.457,148.652 171.915 M244.256 171.592 C 244.615 171.895,245.194 172.619,245.542 173.202 C 245.890 173.785,246.175 174.142,246.176 173.995 C 246.178 173.442,244.886 171.668,244.258 171.361 L 243.603 171.042 244.256 171.592 M296.483 171.527 C 296.737 171.781,298.864 172.609,298.864 172.453 C 298.864 172.370,298.371 172.096,297.768 171.844 C 296.651 171.377,296.229 171.273,296.483 171.527 M319.833 171.610 C 321.124 171.667,323.236 171.667,324.527 171.610 C 325.818 171.554,324.762 171.507,322.180 171.507 C 319.599 171.507,318.543 171.554,319.833 171.610 M125.235 172.445 C 125.347 172.945,125.531 174.852,125.646 176.684 L 125.853 180.015 125.904 176.987 C 125.940 174.895,125.813 173.585,125.494 172.748 C 125.180 171.923,125.097 171.827,125.235 172.445 M224.872 173.266 C 224.770 173.647,224.698 174.232,224.713 174.565 C 224.727 174.898,224.864 174.639,225.016 173.989 C 225.311 172.731,225.185 172.097,224.872 173.266 M235.023 173.366 C 234.515 174.480,234.612 174.718,235.161 173.705 C 235.417 173.233,235.570 172.789,235.501 172.720 C 235.431 172.651,235.216 172.942,235.023 173.366 M168.575 175.170 C 168.747 178.318,168.914 178.763,168.918 176.079 C 168.919 174.913,168.813 173.687,168.682 173.354 C 168.549 173.018,168.502 173.828,168.575 175.170 M113.624 190.664 C 113.583 200.351,113.472 208.527,113.376 208.832 C 113.219 209.331,113.235 209.336,113.530 208.879 C 113.758 208.526,113.834 203.008,113.777 190.711 L 113.697 173.051 113.624 190.664 M73.125 173.728 L 78.120 173.822 78.199 215.147 L 78.277 256.472 78.276 215.064 L 78.274 173.656 73.202 173.645 L 68.130 173.634 73.125 173.728 M279.859 191.227 C 279.781 210.493,279.703 209.615,281.578 210.584 C 282.961 211.299,284.420 209.904,284.254 208.024 L 284.133 206.662 284.080 208.079 C 283.990 210.483,281.883 211.261,280.324 209.467 C 280.286 209.423,280.181 201.347,280.092 191.522 L 279.930 173.656 279.859 191.227 M147.000 192.127 C 147.000 201.453,147.038 205.312,147.085 200.703 C 147.132 196.093,147.132 188.463,147.085 183.746 C 147.038 179.029,147.000 182.801,147.000 192.127 M159.072 177.744 C 159.072 178.993,159.126 179.504,159.191 178.880 C 159.256 178.255,159.256 177.233,159.191 176.609 C 159.126 175.984,159.072 176.495,159.072 177.744 M224.434 177.803 C 224.385 179.511,224.468 179.895,224.968 180.245 C 225.557 180.657,225.557 180.663,224.968 181.167 C 224.396 181.657,224.375 182.148,224.375 195.289 C 224.375 207.935,224.338 208.924,223.846 209.211 C 223.376 209.485,223.372 209.521,223.813 209.529 C 224.647 209.544,224.678 209.022,224.678 195.191 C 224.678 180.273,224.553 181.075,226.876 181.075 C 227.780 181.075,228.275 180.958,228.160 180.772 C 228.058 180.606,227.462 180.469,226.838 180.469 C 225.095 180.469,224.715 180.008,224.596 177.744 L 224.492 175.776 224.434 177.803 M168.684 179.460 C 168.671 179.821,168.490 180.185,168.282 180.269 C 167.985 180.388,167.987 180.427,168.291 180.445 C 168.751 180.474,169.085 179.743,168.864 179.192 C 168.778 178.979,168.697 179.099,168.684 179.460 M101.974 180.083 C 102.518 180.151,103.335 180.149,103.790 180.080 C 104.245 180.011,103.800 179.956,102.801 179.958 C 101.802 179.959,101.429 180.016,101.974 180.083 M142.722 180.499 C 142.764 181.175,142.869 181.219,144.207 181.121 C 145.992 180.991,146.091 180.614,144.368 180.512 C 143.665 180.471,142.996 180.287,142.883 180.104 C 142.770 179.921,142.698 180.098,142.722 180.499 M266.768 180.338 C 266.297 180.597,265.553 180.691,264.799 180.587 C 263.893 180.462,263.702 180.502,264.042 180.743 C 264.292 180.920,265.048 181.068,265.723 181.070 C 266.397 181.073,267.113 181.238,267.313 181.438 C 267.574 181.700,267.676 181.705,267.676 181.456 C 267.676 181.266,267.533 181.022,267.358 180.914 C 267.141 180.780,267.153 180.583,267.396 180.291 C 267.813 179.788,267.765 179.791,266.768 180.338 M99.621 180.799 C 99.119 181.210,99.068 181.313,99.470 181.105 C 100.458 180.595,101.005 180.176,100.681 180.178 C 100.515 180.179,100.038 180.459,99.621 180.799 M105.268 180.467 C 105.626 180.612,106.008 180.876,106.119 181.054 C 106.229 181.232,106.465 181.378,106.645 181.378 C 106.824 181.378,106.624 181.105,106.200 180.772 C 105.777 180.439,105.248 180.175,105.024 180.186 C 104.801 180.196,104.910 180.323,105.268 180.467 M292.531 180.277 C 292.937 180.633,295.231 181.967,295.231 181.847 C 295.231 181.631,293.015 180.167,292.688 180.167 C 292.532 180.167,292.462 180.216,292.531 180.277 M167.582 180.933 C 167.906 181.178,168.271 181.378,168.395 181.378 C 168.519 181.378,168.677 181.752,168.746 182.210 L 168.872 183.043 168.918 182.228 C 168.947 181.693,168.731 181.250,168.290 180.941 C 167.437 180.343,166.793 180.336,167.582 180.933 M286.413 181.704 L 285.087 182.938 286.525 181.791 C 287.316 181.160,287.964 180.605,287.964 180.557 C 287.964 180.323,287.633 180.568,286.413 181.704 M159.114 203.331 C 159.114 215.488,159.152 220.418,159.197 214.285 C 159.243 208.152,159.243 198.205,159.197 192.181 C 159.152 186.156,159.114 191.173,159.114 203.331 M168.729 195.705 C 168.684 203.987,168.769 208.569,168.974 208.953 C 169.302 209.566,170.018 209.733,170.308 209.264 C 170.401 209.113,170.205 209.060,169.872 209.148 C 169.062 209.359,169.150 210.629,168.965 196.064 L 168.799 183.043 168.729 195.705 M108.748 184.709 C 108.748 184.958,108.865 185.435,109.008 185.768 C 109.172 186.150,109.269 186.206,109.269 185.920 C 109.269 185.670,109.151 185.193,109.008 184.860 C 108.844 184.478,108.748 184.422,108.748 184.709 M97.039 206.510 C 97.039 217.918,97.077 222.585,97.123 216.881 C 97.169 211.177,97.169 201.843,97.123 196.139 C 97.077 190.435,97.039 195.102,97.039 206.510 M130.287 206.510 C 130.287 207.260,130.346 207.566,130.418 207.192 C 130.490 206.817,130.490 206.204,130.418 205.829 C 130.346 205.454,130.287 205.761,130.287 206.510 M179.712 206.199 C 178.981 206.378,179.128 206.423,180.469 206.429 C 181.607 206.434,181.943 206.359,181.529 206.192 C 180.829 205.909,180.896 205.909,179.712 206.199 M212.040 206.425 C 212.501 206.494,213.182 206.492,213.555 206.421 C 213.927 206.349,213.550 206.292,212.718 206.294 C 211.885 206.296,211.580 206.355,212.040 206.425 M215.522 206.724 C 215.899 206.797,216.444 206.794,216.733 206.718 C 217.023 206.642,216.715 206.583,216.048 206.587 C 215.382 206.590,215.145 206.652,215.522 206.724 M203.936 208.650 C 203.437 208.970,203.137 209.233,203.270 209.234 C 203.603 209.236,205.299 208.345,205.299 208.168 C 205.299 207.905,204.854 208.062,203.936 208.650 M246.480 208.897 C 246.480 209.398,248.087 210.749,248.683 210.749 C 249.328 210.749,250.719 209.890,250.719 209.492 C 250.719 209.338,250.421 209.490,250.056 209.829 C 249.116 210.705,248.177 210.600,247.264 209.515 C 246.833 209.003,246.480 208.725,246.480 208.897 M109.330 209.289 C 109.310 209.822,110.665 211.061,111.244 211.040 C 111.430 211.033,111.200 210.821,110.733 210.568 C 110.266 210.314,109.763 209.809,109.617 209.444 C 109.421 208.958,109.344 208.917,109.330 209.289 M142.619 209.053 C 142.619 209.543,143.239 210.387,143.739 210.579 C 144.137 210.732,144.082 210.569,143.521 209.934 C 143.108 209.466,142.737 209.027,142.695 208.958 C 142.653 208.888,142.619 208.931,142.619 209.053 M190.916 210.144 C 191.566 210.810,192.167 211.355,192.250 211.355 C 192.333 211.355,191.869 210.810,191.219 210.144 C 190.568 209.478,189.968 208.933,189.885 208.933 C 189.801 208.933,190.265 209.478,190.916 210.144 M125.965 209.532 C 125.965 209.910,127.778 211.157,128.001 210.934 C 128.103 210.832,128.047 210.749,127.877 210.749 C 127.707 210.749,127.207 210.415,126.766 210.007 C 126.326 209.598,125.965 209.385,125.965 209.532 M129.203 210.002 C 128.736 210.413,128.474 210.749,128.621 210.749 C 128.768 210.749,129.208 210.409,129.599 209.992 C 130.504 209.029,130.304 209.034,129.203 210.002 M146.037 210.053 C 145.668 210.436,145.476 210.749,145.611 210.749 C 145.906 210.749,147.008 209.572,146.831 209.445 C 146.763 209.396,146.405 209.670,146.037 210.053 M112.733 209.948 C 112.600 210.173,112.286 210.435,112.036 210.530 C 111.670 210.669,111.682 210.706,112.101 210.726 C 112.387 210.739,112.766 210.477,112.945 210.144 C 113.304 209.472,113.116 209.299,112.733 209.948 M200.875 211.582 C 200.032 212.540,199.181 213.664,198.982 214.080 L 198.620 214.837 199.159 214.083 C 199.455 213.668,200.168 212.782,200.744 212.115 C 202.384 210.212,202.677 209.841,202.537 209.841 C 202.465 209.841,201.717 210.625,200.875 211.582 M264.307 210.220 C 264.738 210.770,266.007 210.943,266.286 210.490 C 266.374 210.348,266.109 210.296,265.697 210.375 C 265.285 210.453,264.710 210.332,264.419 210.104 C 263.941 209.729,263.930 209.740,264.307 210.220 M180.924 215.891 C 181.590 216.013,182.407 216.209,182.740 216.328 C 183.132 216.468,183.079 216.381,182.589 216.080 C 182.173 215.825,181.355 215.628,180.772 215.643 L 179.712 215.670 180.924 215.891 M210.749 216.214 C 210.418 216.438,210.540 216.466,211.204 216.318 C 212.317 216.069,212.559 215.895,211.784 215.902 C 211.465 215.904,210.999 216.045,210.749 216.214 M195.912 217.731 C 195.912 218.284,197.248 218.595,197.530 218.108 C 197.670 217.866,197.704 217.588,197.605 217.489 C 197.507 217.391,197.426 217.466,197.426 217.656 C 197.426 217.900,197.203 217.917,196.669 217.714 C 196.172 217.525,195.912 217.531,195.912 217.731 M206.610 222.104 C 206.611 223.270,206.666 223.710,206.731 223.082 C 206.797 222.454,206.796 221.500,206.729 220.962 C 206.662 220.425,206.608 220.939,206.610 222.104 M226.427 221.651 C 227.712 222.435,228.133 222.434,226.949 221.650 C 226.450 221.319,225.905 221.048,225.738 221.048 C 225.572 221.047,225.881 221.319,226.427 221.651 M164.398 223.089 L 163.664 223.921 164.572 223.164 C 165.072 222.748,165.537 222.373,165.607 222.332 C 165.676 222.290,165.598 222.256,165.433 222.256 C 165.267 222.256,164.802 222.631,164.398 223.089 M228.917 222.861 C 229.251 223.195,229.523 223.626,229.523 223.820 C 229.523 224.015,229.610 224.087,229.716 223.981 C 229.958 223.739,229.006 222.256,228.608 222.256 C 228.445 222.256,228.584 222.528,228.917 222.861 M296.518 224.830 C 296.522 225.496,296.584 225.733,296.656 225.356 C 296.729 224.979,296.726 224.434,296.650 224.145 C 296.574 223.855,296.515 224.164,296.518 224.830 M186.142 225.059 L 185.608 226.041 186.218 225.326 C 186.737 224.718,187.015 224.068,186.752 224.075 C 186.711 224.076,186.436 224.518,186.142 225.059 M234.100 224.729 C 234.081 225.007,233.987 225.484,233.891 225.789 C 233.726 226.315,233.735 226.316,234.063 225.804 C 234.253 225.508,234.347 225.031,234.272 224.744 C 234.149 224.276,234.132 224.274,234.100 224.729 M196.582 225.757 C 195.654 226.407,195.735 226.928,196.669 226.316 C 197.383 225.848,197.428 225.852,197.450 226.385 C 197.463 226.695,197.541 226.784,197.623 226.582 C 197.956 225.760,197.310 225.248,196.582 225.757 M230.565 226.321 C 230.888 226.583,231.570 226.782,232.079 226.763 C 233.000 226.728,233.000 226.727,231.935 226.519 C 231.347 226.403,230.665 226.204,230.421 226.077 C 230.177 225.949,230.242 226.059,230.565 226.321 M208.564 226.646 C 208.739 226.980,209.400 227.729,210.033 228.312 C 211.077 229.274,210.187 228.129,208.386 226.192 C 208.308 226.109,208.389 226.313,208.564 226.646 M296.241 229.220 C 296.241 230.469,296.295 230.980,296.360 230.356 C 296.425 229.731,296.425 228.709,296.360 228.085 C 296.295 227.460,296.241 227.971,296.241 229.220 M194.987 228.841 C 194.303 230.205,194.313 230.340,195.019 229.283 C 195.385 228.735,195.622 228.224,195.545 228.147 C 195.468 228.070,195.217 228.382,194.987 228.841 M198.043 228.463 C 198.044 228.630,198.324 229.107,198.664 229.523 C 199.076 230.026,199.179 230.077,198.971 229.674 C 198.460 228.687,198.041 228.139,198.043 228.463 M179.703 232.324 L 177.896 234.217 179.788 232.409 C 180.829 231.415,181.681 230.564,181.681 230.517 C 181.681 230.293,181.382 230.566,179.703 232.324 M97.296 232.551 C 97.296 233.634,97.351 234.076,97.418 233.535 C 97.485 232.994,97.485 232.108,97.418 231.567 C 97.351 231.026,97.296 231.469,97.296 232.551 M191.525 233.759 C 191.048 234.257,190.716 234.713,190.787 234.772 C 190.858 234.831,191.304 234.424,191.778 233.867 C 192.850 232.609,192.691 232.542,191.525 233.759 M215.001 233.716 C 215.008 233.825,216.336 235.282,217.953 236.954 C 219.570 238.626,220.481 239.512,219.977 238.922 C 218.411 237.090,214.988 233.508,215.001 233.716 M295.785 234.671 C 295.689 235.087,295.517 235.700,295.402 236.033 C 295.287 236.366,295.414 236.256,295.685 235.789 C 295.955 235.321,296.128 234.708,296.067 234.426 C 295.989 234.061,295.908 234.131,295.785 234.671 M206.048 238.380 C 208.192 240.670,210.005 242.544,210.078 242.544 C 210.262 242.544,204.378 236.246,203.148 235.125 C 202.600 234.625,203.905 236.090,206.048 238.380 M176.082 236.182 C 175.605 236.679,175.273 237.135,175.344 237.194 C 175.415 237.253,175.861 236.846,176.336 236.289 C 177.407 235.031,177.248 234.964,176.082 236.182 M188.785 236.866 L 187.282 238.456 188.872 236.953 C 189.746 236.127,190.462 235.411,190.462 235.363 C 190.462 235.137,190.181 235.389,188.785 236.866 M98.412 237.891 C 98.411 238.080,98.614 238.625,98.863 239.102 C 99.111 239.579,99.316 239.815,99.317 239.626 C 99.318 239.437,99.115 238.892,98.866 238.415 C 98.618 237.938,98.413 237.702,98.412 237.891 M221.953 241.484 C 222.518 242.067,223.048 242.544,223.132 242.544 C 223.215 242.544,222.821 242.067,222.256 241.484 C 221.691 240.901,221.161 240.424,221.077 240.424 C 220.994 240.424,221.388 240.901,221.953 241.484 M99.623 241.401 C 99.622 241.522,99.894 242.067,100.226 242.612 C 100.558 243.157,100.830 243.467,100.830 243.301 C 100.829 243.134,100.558 242.589,100.227 242.089 C 99.896 241.590,99.625 241.280,99.623 241.401 M167.720 245.344 C 166.323 246.885,165.421 247.956,165.715 247.725 C 166.381 247.201,170.592 242.544,170.400 242.544 C 170.322 242.544,169.116 243.804,167.720 245.344 M291.665 245.139 C 291.137 246.057,290.827 246.733,290.976 246.641 C 291.304 246.438,292.857 243.702,292.720 243.566 C 292.667 243.512,292.192 244.220,291.665 245.139 M213.187 246.042 C 213.928 246.883,214.596 247.526,214.671 247.469 C 214.746 247.413,214.140 246.725,213.324 245.939 L 211.839 244.512 213.187 246.042 M102.369 246.404 C 102.741 247.029,103.243 247.744,103.484 247.994 C 103.724 248.244,103.487 247.733,102.957 246.858 C 102.426 245.984,101.924 245.269,101.842 245.269 C 101.759 245.269,101.996 245.780,102.369 246.404 M227.101 246.976 C 227.101 247.137,227.612 247.739,228.236 248.313 L 229.372 249.357 228.312 248.149 C 227.729 247.484,227.218 246.883,227.176 246.811 C 227.135 246.740,227.101 246.814,227.101 246.976 M176.819 249.432 L 175.776 250.568 176.911 249.524 C 177.968 248.553,178.186 248.297,177.955 248.297 C 177.904 248.297,177.393 248.808,176.819 249.432 M217.562 250.719 C 218.213 251.385,218.813 251.930,218.897 251.930 C 218.980 251.930,218.516 251.385,217.865 250.719 C 217.215 250.053,216.614 249.508,216.531 249.508 C 216.448 249.508,216.912 250.053,217.562 250.719 M230.583 251.022 C 231.403 251.855,232.133 252.536,232.204 252.536 C 232.461 252.536,229.668 249.569,229.383 249.539 C 229.223 249.522,229.763 250.189,230.583 251.022 M105.980 251.325 C 106.336 251.824,106.695 252.233,106.779 252.233 C 106.862 252.233,106.639 251.824,106.283 251.325 C 105.927 250.825,105.568 250.416,105.485 250.416 C 105.402 250.416,105.625 250.825,105.980 251.325 M173.193 253.454 C 171.988 254.792,171.053 255.927,171.117 255.977 C 171.181 256.026,172.232 254.932,173.451 253.545 C 174.671 252.157,175.605 251.022,175.527 251.022 C 175.450 251.022,174.399 252.116,173.193 253.454 M219.228 252.408 C 219.228 252.532,219.990 253.431,220.921 254.407 C 221.852 255.383,222.567 256.061,222.510 255.914 C 222.348 255.490,219.228 252.159,219.228 252.408 M233.762 254.172 C 233.762 254.431,239.025 258.592,239.353 258.592 C 239.516 258.592,239.313 258.362,238.902 258.081 C 238.490 257.799,237.165 256.769,235.958 255.790 C 234.750 254.812,233.762 254.083,233.762 254.172 M282.816 255.741 C 281.734 256.653,280.460 257.609,279.987 257.866 C 279.514 258.124,279.203 258.411,279.298 258.506 C 279.477 258.684,281.788 256.987,283.879 255.142 C 285.783 253.461,284.994 253.905,282.816 255.741 M317.109 255.110 C 317.112 255.776,317.174 256.013,317.247 255.636 C 317.319 255.259,317.316 254.714,317.241 254.425 C 317.165 254.135,317.106 254.444,317.109 255.110 M224.224 257.986 C 224.875 258.653,225.475 259.198,225.558 259.198 C 225.641 259.198,225.177 258.653,224.527 257.986 C 223.876 257.320,223.276 256.775,223.193 256.775 C 223.109 256.775,223.574 257.320,224.224 257.986 M242.172 260.107 C 243.458 260.891,243.879 260.890,242.695 260.106 C 242.195 259.775,241.650 259.504,241.484 259.504 C 241.317 259.503,241.627 259.775,242.172 260.107 M150.341 260.409 C 149.841 260.740,149.569 261.008,149.735 261.006 C 150.039 261.001,151.685 259.821,151.400 259.812 C 151.317 259.809,150.840 260.078,150.341 260.409 M275.507 260.399 C 274.566 261.182,275.077 261.191,276.072 260.409 C 276.495 260.076,276.702 259.803,276.532 259.803 C 276.361 259.803,275.900 260.071,275.507 260.399 M78.973 261.166 C 79.127 261.499,79.328 261.976,79.420 262.226 C 79.566 262.618,79.592 262.616,79.613 262.208 C 79.626 261.948,79.425 261.471,79.166 261.148 C 78.702 260.570,78.699 260.570,78.973 261.166 M244.966 261.469 C 245.382 261.707,245.859 261.901,246.026 261.901 C 246.192 261.901,245.988 261.707,245.572 261.469 C 245.155 261.231,244.678 261.036,244.512 261.036 C 244.345 261.036,244.550 261.231,244.966 261.469 M269.796 262.680 C 269.213 262.904,268.940 263.092,269.190 263.097 C 269.440 263.102,270.053 262.919,270.553 262.691 C 271.722 262.155,271.178 262.147,269.796 262.680 M229.523 262.623 C 229.523 262.675,229.966 263.118,230.507 263.607 L 231.491 264.497 230.602 263.512 C 229.773 262.595,229.523 262.389,229.523 262.623 M126.268 263.562 C 126.851 263.801,127.737 263.991,128.236 263.985 C 129.119 263.973,129.115 263.966,128.085 263.747 C 127.502 263.624,126.616 263.434,126.117 263.325 C 125.289 263.146,125.303 263.167,126.268 263.562 M252.233 263.737 C 252.643 264.004,255.234 264.193,254.933 263.934 C 254.864 263.874,254.126 263.739,253.293 263.633 C 252.259 263.502,251.923 263.535,252.233 263.737 M265.254 263.740 L 263.891 263.951 265.102 263.976 C 265.768 263.989,266.586 263.883,266.919 263.740 C 267.621 263.438,267.193 263.438,265.254 263.740 M132.400 264.265 C 133.191 264.327,134.485 264.327,135.276 264.265 C 136.067 264.203,135.420 264.152,133.838 264.152 C 132.256 264.152,131.609 264.203,132.400 264.265 M160.685 265.273 C 159.880 265.929,159.335 266.464,159.474 266.464 C 159.614 266.464,160.341 265.924,161.090 265.266 C 162.845 263.724,162.584 263.728,160.685 265.273 M258.071 264.265 C 258.867 264.328,260.094 264.327,260.796 264.264 C 261.499 264.200,260.848 264.149,259.349 264.150 C 257.850 264.151,257.275 264.203,258.071 264.265 M313.054 264.875 C 312.183 265.927,311.814 266.465,311.963 266.465 C 312.047 266.465,312.480 265.988,312.924 265.405 C 313.749 264.323,313.849 263.915,313.054 264.875 M81.633 266.616 C 81.905 267.033,82.178 267.373,82.239 267.373 C 82.299 267.373,82.194 267.033,82.004 266.616 C 81.814 266.200,81.542 265.859,81.398 265.859 C 81.254 265.859,81.360 266.200,81.633 266.616 M310.355 267.600 L 309.311 268.736 310.447 267.692 C 311.504 266.721,311.721 266.465,311.490 266.465 C 311.440 266.465,310.929 266.976,310.355 267.600 M236.790 267.787 C 236.790 267.988,240.199 269.819,240.330 269.688 C 240.387 269.630,239.615 269.146,238.613 268.612 C 237.610 268.078,236.790 267.706,236.790 267.787 M85.159 270.010 C 85.444 270.326,86.261 270.905,86.972 271.297 C 88.621 272.205,88.405 271.965,86.301 270.552 C 85.387 269.938,84.873 269.694,85.159 270.010 M115.064 269.947 C 115.481 270.185,115.958 270.380,116.124 270.380 C 116.291 270.380,116.086 270.185,115.670 269.947 C 115.254 269.709,114.777 269.514,114.610 269.514 C 114.444 269.514,114.648 269.709,115.064 269.947 M244.209 271.324 C 245.042 271.649,245.859 271.907,246.026 271.898 C 246.481 271.873,243.674 270.738,243.149 270.735 C 242.899 270.734,243.376 270.998,244.209 271.324 M273.883 271.472 C 272.661 272.032,273.392 272.033,274.681 271.473 C 275.242 271.230,275.496 271.036,275.246 271.043 C 274.996 271.050,274.383 271.243,273.883 271.472 M301.741 271.310 C 300.917 271.519,300.903 271.542,301.590 271.555 C 302.006 271.563,302.619 271.453,302.952 271.310 C 303.699 270.989,303.002 270.989,301.741 271.310 M292.263 271.838 C 293.712 271.893,296.165 271.893,297.714 271.838 C 299.263 271.783,298.077 271.738,295.079 271.738 C 292.082 271.737,290.814 271.782,292.263 271.838 M122.332 272.369 C 122.748 272.607,123.225 272.802,123.391 272.802 C 123.558 272.802,123.354 272.607,122.937 272.369 C 122.521 272.131,122.044 271.937,121.877 271.937 C 121.711 271.937,121.915 272.131,122.332 272.369 M145.175 272.360 C 144.411 272.938,144.742 272.944,145.840 272.371 C 146.317 272.122,146.495 271.918,146.235 271.917 C 145.975 271.916,145.498 272.115,145.175 272.360 M247.691 272.369 C 248.107 272.607,248.584 272.802,248.751 272.802 C 248.917 272.802,248.713 272.607,248.297 272.369 C 247.880 272.131,247.403 271.937,247.237 271.937 C 247.070 271.937,247.275 272.131,247.691 272.369 M270.704 272.369 C 269.715 272.935,270.061 272.941,271.351 272.381 C 271.911 272.138,272.165 271.938,271.915 271.938 C 271.665 271.937,271.120 272.131,270.704 272.369 M124.527 273.032 C 124.818 273.109,125.295 273.109,125.587 273.032 C 125.878 272.956,125.640 272.894,125.057 272.894 C 124.474 272.894,124.235 272.956,124.527 273.032 M142.392 273.032 C 142.684 273.109,143.160 273.109,143.452 273.032 C 143.743 272.956,143.505 272.894,142.922 272.894 C 142.339 272.894,142.101 272.956,142.392 273.032 M92.506 273.429 C 92.839 273.572,93.316 273.689,93.565 273.689 C 93.852 273.689,93.796 273.593,93.414 273.429 C 93.081 273.286,92.604 273.169,92.354 273.169 C 92.068 273.169,92.124 273.265,92.506 273.429 M127.933 273.429 C 129.214 273.755,130.314 273.755,129.296 273.429 C 128.880 273.296,128.198 273.189,127.782 273.192 C 127.102 273.197,127.117 273.222,127.933 273.429 M138.683 273.429 C 137.665 273.755,138.765 273.755,140.045 273.429 C 140.861 273.222,140.877 273.197,140.197 273.192 C 139.780 273.189,139.099 273.296,138.683 273.429 M252.763 273.340 C 253.138 273.412,253.751 273.412,254.126 273.340 C 254.500 273.268,254.194 273.209,253.444 273.209 C 252.695 273.209,252.388 273.268,252.763 273.340 M265.178 273.340 C 265.553 273.412,266.166 273.412,266.540 273.340 C 266.915 273.268,266.609 273.209,265.859 273.209 C 265.110 273.209,264.803 273.268,265.178 273.340 M262.907 273.638 C 263.198 273.714,263.675 273.714,263.967 273.638 C 264.258 273.562,264.020 273.499,263.437 273.499 C 262.854 273.499,262.615 273.562,262.907 273.638 M97.729 273.958 C 99.436 274.012,102.229 274.012,103.936 273.958 C 105.643 273.904,104.247 273.860,100.833 273.860 C 97.419 273.860,96.022 273.904,97.729 273.958 M131.041 273.946 C 131.417 274.019,131.962 274.016,132.252 273.940 C 132.541 273.864,132.233 273.805,131.567 273.808 C 130.901 273.812,130.664 273.874,131.041 273.946 M258.213 273.954 C 258.921 274.017,260.079 274.017,260.787 273.954 C 261.495 273.890,260.916 273.838,259.500 273.838 C 258.085 273.838,257.506 273.890,258.213 273.954 " stroke="none" fill="#1abc9c" fill-rule="evenodd"></path></g></svg>