<?xml version="1.0" encoding="UTF-8"?>
<!DOCTYPE svg PUBLIC "-//W3C//DTD SVG 1.1//EN" "http://www.w3.org/Graphics/SVG/1.1/DTD/svg11.dtd">
<svg xmlns="http://www.w3.org/2000/svg" version="1.1" width="512px" height="512px" style="shape-rendering:geometricPrecision; text-rendering:geometricPrecision; image-rendering:optimizeQuality; fill-rule:evenodd; clip-rule:evenodd" xmlns:xlink="http://www.w3.org/1999/xlink">
<g><path style="opacity:1" fill="#fefefe" d="M -0.5,-0.5 C 170.167,-0.5 340.833,-0.5 511.5,-0.5C 511.5,170.167 511.5,340.833 511.5,511.5C 340.833,511.5 170.167,511.5 -0.5,511.5C -0.5,340.833 -0.5,170.167 -0.5,-0.5 Z"/></g>
<g><path style="opacity:1" fill="#2c3d4f" d="M 51.5,30.5 C 187.5,30.3333 323.5,30.5 459.5,31C 470.333,33.8333 477.167,40.6667 480,51.5C 480.667,187.5 480.667,323.5 480,459.5C 477.167,470.333 470.333,477.167 459.5,480C 323.5,480.667 187.5,480.667 51.5,480C 40.6667,477.167 33.8333,470.333 31,459.5C 30.3333,323.5 30.3333,187.5 31,51.5C 34.0161,40.6517 40.8495,33.6517 51.5,30.5 Z"/></g>
<g><path style="opacity:1" fill="#fbfbfb" d="M 63.5,56.5 C 89.5021,56.3334 115.502,56.5 141.5,57C 150.833,63.3333 150.833,69.6667 141.5,76C 119.836,76.5 98.1692,76.6666 76.5,76.5C 76.6666,97.8359 76.5,119.169 76,140.5C 71.4042,149.822 65.4042,150.822 58,143.5C 56.3516,116.92 56.0182,90.2536 57,63.5C 58.6941,60.6424 60.8607,58.309 63.5,56.5 Z"/></g>
<g><path style="opacity:1" fill="#fbfbfb" d="M 369.5,56.5 C 395.502,56.3334 421.502,56.5 447.5,57C 449.624,58.1217 451.457,59.6217 453,61.5C 454.648,87.7463 454.982,114.08 454,140.5C 452.052,146.723 447.885,149.223 441.5,148C 438.667,146.5 436.5,144.333 435,141.5C 434.5,119.836 434.333,98.1692 434.5,76.5C 412.831,76.6666 391.164,76.5 369.5,76C 360.221,69.503 360.221,63.003 369.5,56.5 Z"/></g>
<g><path style="opacity:1" fill="#fefefe" d="M 242.5,111.5 C 299.295,109.198 339.795,133.531 364,184.5C 370.726,201.526 373.56,219.192 372.5,237.5C 399.604,240.104 414.604,254.937 417.5,282C 413.593,313.648 395.593,328.982 363.5,328C 342.147,373.316 306.313,397.149 256,399.5C 214.651,398.163 181.984,380.83 158,347.5C 154.358,341.048 150.858,334.548 147.5,328C 109.305,327.479 91.8049,308.313 95,270.5C 102.431,250.199 116.931,239.199 138.5,237.5C 137.928,178.607 164.928,138.44 219.5,117C 227.203,114.745 234.87,112.912 242.5,111.5 Z"/></g>
<g><path style="opacity:1" fill="#2c3b4b" d="M 198.5,245.5 C 204.425,244.875 208.591,247.208 211,252.5C 211.667,263.5 211.667,274.5 211,285.5C 204.718,294.821 198.384,294.821 192,285.5C 191.333,274.5 191.333,263.5 192,252.5C 193.018,248.985 195.185,246.652 198.5,245.5 Z"/></g>
<g><path style="opacity:1" fill="#2c3b4b" d="M 306.5,245.5 C 312.425,244.875 316.591,247.208 319,252.5C 319.667,263.5 319.667,274.5 319,285.5C 312.718,294.821 306.384,294.821 300,285.5C 299.333,274.5 299.333,263.5 300,252.5C 301.018,248.985 303.185,246.652 306.5,245.5 Z"/></g>
<g><path style="opacity:1" fill="#2c3b4b" d="M 229.5,326.5 C 246.503,326.333 263.503,326.5 280.5,327C 286.777,329.389 288.943,333.889 287,340.5C 285.74,343.428 283.573,345.261 280.5,346C 263.5,346.667 246.5,346.667 229.5,346C 223.458,342.252 221.958,337.085 225,330.5C 226.397,328.93 227.897,327.596 229.5,326.5 Z"/></g>
<g><path style="opacity:1" fill="#fbfbfb" d="M 63.5,362.5 C 69.3468,361.84 73.5134,364.173 76,369.5C 76.5,391.164 76.6666,412.831 76.5,434.5C 98.1692,434.333 119.836,434.5 141.5,435C 150.833,441.333 150.833,447.667 141.5,454C 114.746,454.982 88.0798,454.648 61.5,453C 59.1898,451.363 57.6898,449.196 57,446.5C 56.3333,420.833 56.3333,395.167 57,369.5C 58.6941,366.642 60.8607,364.309 63.5,362.5 Z"/></g>
<g><path style="opacity:1" fill="#fbfbfb" d="M 441.5,362.5 C 447.347,361.84 451.513,364.173 454,369.5C 454.973,396.229 454.64,422.896 453,449.5C 451.457,451.378 449.624,452.878 447.5,454C 421.5,454.667 395.5,454.667 369.5,454C 360.167,447.667 360.167,441.333 369.5,435C 391.164,434.5 412.831,434.333 434.5,434.5C 434.333,412.831 434.5,391.164 435,369.5C 436.694,366.642 438.861,364.309 441.5,362.5 Z"/></g>
</svg>
